# xmcd
#
# Track frame offsets:
#	210
#	15229
#	29581
#	39643
#	58371
#	70517
#
# Disc length: 1172
#
# Revision: 4
# Processed by: cddbd v1.5.1PL0 Copyright (c) Steve Scherf et al.
# Submitted via: audiograbber 1.83.01
# Normalized: r3:DSETVAR2
#
DISCID=49049206
DTITLE=Various Artist - M&M's Sings The Blues
DYEAR=1900
DGENRE=Blues
TTITLE0=Torben Johanson - M&M's it's blue
TTITLE1=BB King - How blue can you get
TTITLE2=Carl Perkins - Blue Suede Shoes
TTITLE3=Bono - When love comes to town
TTITLE4=Wilsons - Play the blues
TTITLE5=Little Willie - Boogie and bluesin
EXTD=
EXTT0=
EXTT1=
EXTT2=
EXTT3=
EXTT4=
EXTT5=
PLAYORDER=
